<svg width="109" height="39" viewBox="0 0 109 39" fill="none" xmlns="http://www.w3.org/2000/svg">
<path d="M102.511 23.2772C103.619 23.2772 104.458 22.9312 105.029 22.239C105.6 21.5469 105.886 20.6558 105.886 19.5657V13.0769H109V25.3796C109 26.2967 108.853 27.1618 108.559 27.9751C108.265 28.7883 107.832 29.4891 107.261 30.0774C106.69 30.6831 105.989 31.1589 105.159 31.505C104.328 31.851 103.377 32.0241 102.304 32.0241C101.594 32.0241 100.885 31.9722 100.175 31.8683C99.4833 31.7818 98.8604 31.6434 98.3067 31.4531V28.2606C98.7566 28.5028 99.3276 28.6845 100.02 28.8057C100.729 28.9441 101.439 29.0133 102.148 29.0133C102.858 29.0133 103.446 28.9181 103.913 28.7278C104.398 28.5375 104.787 28.2779 105.081 27.9491C105.375 27.6204 105.583 27.231 105.704 26.7812C105.825 26.3486 105.886 25.8727 105.886 25.3536V24.6009C105.436 25.1027 104.908 25.4921 104.302 25.7689C103.697 26.0458 102.987 26.1842 102.174 26.1842C101.292 26.1842 100.487 26.0112 99.7602 25.6651C99.0335 25.319 98.4105 24.8518 97.8914 24.2635C97.3723 23.6579 96.9744 22.9571 96.6975 22.1612C96.4207 21.3479 96.2822 20.4827 96.2822 19.5657V13.0769H99.3968V19.5657C99.3968 20.6731 99.6391 21.5729 100.124 22.265C100.608 22.9398 101.404 23.2772 102.511 23.2772Z" fill="#FCFAFF"/>
<path d="M91.4422 13.5183H95.024V16.4252H91.4422V26.0545H88.3276V13.103C88.3276 12.1859 88.4747 11.3207 88.7689 10.5075C89.063 9.69422 89.4956 8.99344 90.0666 8.40512C90.6376 7.79951 91.3384 7.32366 92.169 6.9776C92.9995 6.63153 93.9512 6.4585 95.024 6.4585C95.2144 6.4585 95.4047 6.4758 95.595 6.51041C95.7854 6.52771 95.9757 6.55366 96.1661 6.58827V9.59906C95.993 9.56445 95.8286 9.53849 95.6729 9.52119C95.5172 9.48658 95.3528 9.46928 95.1798 9.46928C94.4703 9.46928 93.8734 9.56445 93.3889 9.75479C92.9217 9.94512 92.541 10.2047 92.2468 10.5334C91.9527 10.8449 91.745 11.2256 91.6239 11.6755C91.5028 12.108 91.4422 12.5752 91.4422 13.077V13.5183Z" fill="#FCFAFF"/>
<path d="M86.2448 26.0545H83.1302V13.077H86.2448V26.0545ZM82.689 9.59905C82.689 9.04534 82.862 8.57815 83.2081 8.19748C83.5714 7.8168 84.0646 7.62646 84.6875 7.62646C85.3104 7.62646 85.7949 7.82545 86.141 8.22343C86.4871 8.6041 86.6601 9.06264 86.6601 9.59905C86.6601 10.1528 86.4871 10.6286 86.141 11.0266C85.7949 11.4072 85.3104 11.5976 84.6875 11.5976C84.0646 11.5976 83.5714 11.4072 83.2081 11.0266C82.862 10.6286 82.689 10.1528 82.689 9.59905Z" fill="#FCFAFF"/>
<path d="M74.5764 23.2772C75.6838 23.2772 76.523 22.9312 77.094 22.239C77.665 21.5469 77.9505 20.6558 77.9505 19.5657V13.0769H81.0651V25.3796C81.0651 26.2967 80.9181 27.1618 80.6239 27.9751C80.3297 28.7883 79.8972 29.4891 79.3261 30.0774C78.7551 30.6831 78.0544 31.1589 77.2238 31.505C76.3932 31.851 75.4415 32.0241 74.3687 32.0241C73.6593 32.0241 72.9499 31.9722 72.2404 31.8683C71.5483 31.7818 70.9254 31.6434 70.3717 31.4531V28.2606C70.8215 28.5028 71.3926 28.6845 72.0847 28.8057C72.7941 28.9441 73.5036 29.0133 74.213 29.0133C74.9224 29.0133 75.5108 28.9181 75.9779 28.7278C76.4624 28.5375 76.8518 28.2779 77.1459 27.9491C77.4401 27.6204 77.6477 27.231 77.7688 26.7812C77.89 26.3486 77.9505 25.8727 77.9505 25.3536V24.6009C77.5006 25.1027 76.9729 25.4921 76.3673 25.7689C75.7617 26.0458 75.0522 26.1842 74.239 26.1842C73.3565 26.1842 72.5519 26.0112 71.8251 25.6651C71.0984 25.319 70.4755 24.8518 69.9564 24.2635C69.4373 23.6579 69.0393 22.9571 68.7625 22.1612C68.4856 21.3479 68.3472 20.4827 68.3472 19.5657V13.0769H71.4618V19.5657C71.4618 20.6731 71.704 21.5729 72.1885 22.265C72.673 22.9398 73.469 23.2772 74.5764 23.2772Z" fill="#FCFAFF"/>
<path d="M57.1781 19.5658C57.1781 20.0849 57.2386 20.5694 57.3598 21.0193C57.4982 21.4692 57.7058 21.8671 57.9827 22.2132C58.2768 22.542 58.6402 22.8015 59.0728 22.9919C59.5227 23.1822 60.0591 23.2774 60.682 23.2774C61.3049 23.2774 61.8327 23.1822 62.2653 22.9919C62.7152 22.8015 63.0785 22.542 63.3554 22.2132C63.6495 21.8671 63.8572 21.4692 63.9783 21.0193C64.1167 20.5694 64.1859 20.0849 64.1859 19.5658C64.1859 19.0467 64.1167 18.5622 63.9783 18.1123C63.8572 17.6624 63.6495 17.2731 63.3554 16.9443C63.0785 16.5983 62.7152 16.3301 62.2653 16.1397C61.8327 15.9494 61.3049 15.8542 60.682 15.8542C60.0591 15.8542 59.5227 15.9494 59.0728 16.1397C58.6402 16.3301 58.2768 16.5983 57.9827 16.9443C57.7058 17.2731 57.4982 17.6624 57.3598 18.1123C57.2386 18.5622 57.1781 19.0467 57.1781 19.5658ZM54.0635 19.5658C54.0635 18.6487 54.2106 17.7922 54.5047 16.9962C54.7989 16.183 55.2315 15.4822 55.8025 14.8939C56.3735 14.2883 57.0656 13.8124 57.8789 13.4664C58.7094 13.1203 59.6438 12.9473 60.682 12.9473C61.7202 12.9473 62.6459 13.1203 63.4592 13.4664C64.2898 13.8124 64.9905 14.2883 65.5616 14.8939C66.1326 15.4822 66.5651 16.183 66.8593 16.9962C67.1535 17.7922 67.3005 18.6487 67.3005 19.5658C67.3005 20.4829 67.1535 21.348 66.8593 22.1613C66.5651 22.9573 66.1326 23.658 65.5616 24.2637C64.9905 24.852 64.2898 25.3192 63.4592 25.6652C62.6459 26.0113 61.7202 26.1843 60.682 26.1843C59.6438 26.1843 58.7094 26.0113 57.8789 25.6652C57.0656 25.3192 56.3735 24.852 55.8025 24.2637C55.2315 23.658 54.7989 22.9573 54.5047 22.1613C54.2106 21.348 54.0635 20.4829 54.0635 19.5658Z" fill="#FCFAFF"/>
<path d="M50.5724 26.0544H47.4578V13.0769H42.5264V10.1699H55.5039V13.0769H50.5724V26.0544Z" fill="#FCFAFF"/>
<path d="M38.22 19.5C38.22 9.16123 29.8388 0.78 19.5 0.78C9.16123 0.78 0.78 9.16123 0.78 19.5C0.78 29.8388 9.16123 38.22 19.5 38.22V39C8.73045 39 0 30.2696 0 19.5C0 8.73045 8.73045 0 19.5 0C30.2696 0 39 8.73045 39 19.5C39 30.2696 30.2696 39 19.5 39V38.22C29.8388 38.22 38.22 29.8388 38.22 19.5Z" fill="#FCFAFF"/>
<path d="M17 28.7432L12 34V29.1115C12 27.6754 12.7467 26.2948 14.0838 25.259L17 23V28.7432ZM13.1538 31.3008L15.8462 28.4702V25.1331L14.9162 25.8536C13.7854 26.7296 13.1538 27.897 13.1538 29.1115V31.3008Z" fill="#FCFAFF"/>
<path d="M22 28.7432L27 34V29.1115C27 27.6754 26.2533 26.2948 24.9162 25.259L22 23V28.7432ZM25.8462 31.3008L23.1538 28.4702V25.1331L24.0838 25.8536C25.2146 26.7296 25.8462 27.897 25.8462 29.1115V31.3008Z" fill="#FCFAFF"/>
<path d="M11.7539 19.8577C12.0568 19.5539 12.5479 19.5539 12.8508 19.8577C13.1537 20.1615 13.1537 20.6539 12.8508 20.9577L10.7822 23.032C10.4792 23.3358 9.98816 23.3358 9.68522 23.032C9.38227 22.7283 9.38227 22.2359 9.68522 21.9321L11.7539 19.8577Z" fill="#FCFAFF"/>
<path d="M27.3243 19.8577C27.0213 19.5539 26.5303 19.5539 26.2273 19.8577C25.9244 20.1615 25.9244 20.6539 26.2273 20.9577L28.296 23.032C28.5989 23.3358 29.09 23.3358 29.3929 23.032C29.6959 22.7283 29.6959 22.2359 29.3929 21.9321L27.3243 19.8577Z" fill="#FCFAFF"/>
<path d="M12.7539 9.40205C13.0568 9.70583 13.5479 9.70583 13.8508 9.40205C14.1537 9.09826 14.1537 8.60585 13.8508 8.30207L11.7822 6.22772C11.4792 5.92394 10.9882 5.92394 10.6852 6.22772C10.3823 6.5315 10.3823 7.02391 10.6852 7.32769L12.7539 9.40205Z" fill="#FCFAFF"/>
<path d="M18.7847 6.58462C18.7847 7.01321 19.1321 7.36057 19.5607 7.36057C19.9893 7.36057 20.3366 7.01321 20.3366 6.58462V3.65805C20.3366 3.22946 19.9893 2.88211 19.5607 2.88211C19.1321 2.88211 18.7847 3.22946 18.7847 3.65805V6.58462Z" fill="#FCFAFF"/>
<path d="M26.3243 9.40205C26.0213 9.70583 25.5303 9.70583 25.2273 9.40205C24.9244 9.09826 24.9244 8.60585 25.2273 8.30207L27.296 6.22772C27.5989 5.92394 28.09 5.92394 28.3929 6.22772C28.6959 6.5315 28.6959 7.02391 28.3929 7.32769L26.3243 9.40205Z" fill="#FCFAFF"/>
<path d="M11.0501 14.4564C11.4789 14.4684 11.8159 14.8256 11.8027 15.2544C11.7896 15.6833 11.4314 16.0211 11.0025 16.0091L8.0741 15.9275C7.64524 15.9155 7.30832 15.5583 7.32147 15.1295C7.33461 14.7006 7.69284 14.3628 8.12169 14.3747L11.0501 14.4564Z" fill="#FCFAFF"/>
<path d="M28.2688 14.4564C27.8399 14.4684 27.503 14.8256 27.5161 15.2544C27.5293 15.6833 27.8875 16.0211 28.3164 16.0091L31.2448 15.9275C31.6736 15.9155 32.0105 15.5583 31.9974 15.1295C31.9842 14.7006 31.626 14.3628 31.1972 14.3747L28.2688 14.4564Z" fill="#FCFAFF"/>
<path d="M23 23V29H16V23H23ZM16.84 28.1724H22.16V23.8276H16.84V28.1724Z" fill="#FCFAFF"/>
<path d="M20.6569 21.4307L20.909 21.6503L21.1955 21.4695L22 21V23L17 23.0694V22.9865V21L17.7881 21.473L18.0802 21.6511L18.3285 21.424L19.4604 20.3883L20.6569 21.4307ZM19.4949 9C24.4862 9.00003 27.4938 14.1158 25.2399 18.1902C23.9808 20.4662 23 21.7435 23 23L23.0224 19.8408L21.2378 16.7061L19.9598 14.4611C19.7464 14.0863 19.1602 14.0863 18.9468 14.4611L17.6688 16.7061L15.8843 19.8408L16 23C16 21.6636 14.9158 20.3787 13.6719 17.9728C11.581 13.9287 14.605 9 19.4949 9ZM20.4952 17.098L22.1124 19.9389L20.9957 20.6435L19.7487 19.557L19.4461 19.2934L19.1505 19.5638L17.9711 20.6427L16.8001 19.9284L18.4115 17.098H20.4952ZM20.049 16.3143H18.8576L19.4533 15.2677L20.049 16.3143Z" fill="#FCFAFF"/>
<path d="M14.3058 13.9786C14.0711 13.8999 13.9374 13.6274 14.0291 13.3787C14.328 12.5684 14.7942 11.8419 15.3938 11.2573C15.9934 10.6726 16.707 10.2487 17.4779 10.016C17.7145 9.94456 17.9474 10.1204 17.9924 10.384C18.0374 10.6475 17.8774 10.8986 17.6419 10.9746C17.0303 11.1719 16.4643 11.515 15.9858 11.9815C15.5074 12.4481 15.1312 13.0235 14.8826 13.665C14.7869 13.9119 14.5404 14.0572 14.3058 13.9786Z" fill="#6941C6"/>
<path d="M19.2832 34.5556C19.2832 33.6555 19.8933 32.9259 20.646 32.9259H22.0089C22.1457 32.9259 22.2566 32.7933 22.2566 32.6296C22.2566 32.466 22.1457 32.3333 22.0089 32.3333H16.8982C16.4022 32.3333 16 31.8525 16 31.2593C16 30.6661 16.4022 30.1852 16.8982 30.1852H18.292C18.8394 30.1852 19.2832 29.6546 19.2832 29L19.668 28.9999L20.0265 29C20.0265 30.1455 19.25 31.0741 18.292 31.0741H16.8982C16.8127 31.0741 16.7434 31.157 16.7434 31.2593C16.7434 31.3615 16.8127 31.4444 16.8982 31.4444H22.0089C22.5562 31.4444 23 31.9751 23 32.6296C23 33.2842 22.5562 33.8148 22.0089 33.8148H20.646C20.3039 33.8148 20.0265 34.1465 20.0265 34.5556C20.0265 34.801 19.8601 35 19.6549 35C19.4496 35 19.2832 34.801 19.2832 34.5556Z" fill="#FCFAFF"/>
</svg>
